<svg width="17" height="25" viewBox="0 0 17 25" fill="none" xmlns="http://www.w3.org/2000/svg">
<path d="M15.9691 6.86048L15.8061 7.05L15.9691 6.86048ZM16.2904 7.37005C16.4281 7.3597 16.5313 7.2397 16.521 7.10202L16.3524 4.85834C16.342 4.72066 16.222 4.61743 16.0844 4.62778C15.9467 4.63812 15.8434 4.75813 15.8538 4.89581L16.0037 6.89019L14.0093 7.04005C13.8716 7.0504 13.7684 7.1704 13.7787 7.30808C13.7891 7.44577 13.9091 7.54899 14.0467 7.53865L16.2904 7.37005ZM15.9691 6.86048L15.8061 7.05L16.1087 7.31028L16.2717 7.12075L16.4347 6.93122L16.1322 6.67095L15.9691 6.86048ZM0.25 7.12075L0.419218 7.30477C4.74148 3.33028 11.3546 3.22078 15.8061 7.05L15.9691 6.86048L16.1322 6.67095C11.4884 2.67636 4.58971 2.79058 0.0807817 6.93672L0.25 7.12075Z" fill="black"/>
<path d="M0.552608 18.0619L0.715641 17.8724L0.552608 18.0619ZM0.231308 17.5523C0.093626 17.5627 -0.00960159 17.6827 0.000745773 17.8203L0.169346 20.064C0.179693 20.2017 0.299694 20.3049 0.437377 20.2946C0.57506 20.2842 0.678287 20.1642 0.66794 20.0266L0.518072 18.0322L2.51245 17.8823C2.65013 17.872 2.75336 17.752 2.74301 17.6143C2.73267 17.4766 2.61267 17.3734 2.47498 17.3837L0.231308 17.5523ZM0.552608 18.0619L0.715641 17.8724L0.413075 17.6121L0.250042 17.8016L0.0870094 17.9911L0.389574 18.2514L0.552608 18.0619ZM16.2717 17.8016L16.1025 17.6176C11.7802 21.5921 5.16711 21.7016 0.715641 17.8724L0.552608 18.0619L0.389574 18.2514C5.03329 22.246 11.932 22.1318 16.4409 17.9856L16.2717 17.8016Z" fill="black"/>
</svg>
